REM DIRINDEX 1\2,1\3,1\4
REM DIRNAME folder01,folder02,folder03,folder04
TITLE ""
FILE "CD3Track12.mp3" MP3
  TRACK 01 AUDIO
    TITLE "0:"
    INDEX 01 00:00:00
  TRACK 02 AUDIO
    TITLE "2:cjc077_1070"
    INDEX 01 00:00:03
  TRACK 03 AUDIO
    TITLE "2:cjc077_1071"
    INDEX 01 00:10:14
  TRACK 04 AUDIO
    TITLE "0:"
    INDEX 01 00:21:39
